<svg viewBox="0 0 73 73" xmlns="http://www.w3.org/2000/svg" xmlns:xlink="http://www.w3.org/1999/xlink" width="73.000000" height="73.000000" fill="none">
	<rect id="codewars 1" width="73.000000" height="73.000000" x="0.000000" y="0.000000" />
	<path id="Форма 258" d="M55.9217 48.3584C55.4651 48.7638 54.9069 48.9666 54.298 48.9159C54.5518 49.6759 54.3488 50.5375 53.7907 51.0949C53.2325 51.6524 52.3701 51.8551 51.6089 51.551C51.5581 52.1591 51.1523 52.7165 50.5942 52.97C49.9853 53.2233 49.2749 53.1219 48.7675 52.7165C48.5137 53.274 47.9048 53.6288 47.2959 53.5781C47.2959 53.9328 47.1944 54.237 46.9916 54.5409C46.3319 56.0107 44.6576 56.72 43.1352 56.1119C43.186 57.4802 42.1205 58.6458 40.6999 58.6965C40.0402 58.6965 39.3806 58.4937 38.8732 57.9869C38.5179 58.7978 37.8075 59.3046 36.945 59.3553C36.0824 59.406 35.2706 58.9499 34.8648 58.1897C34.3572 58.8485 33.5455 59.1525 32.7336 58.9499C31.9219 58.7472 31.313 58.0883 31.1607 57.3281C30.5518 57.5816 29.8922 57.5309 29.3848 57.1255C28.8774 56.72 28.6236 56.1119 28.7252 55.453L28.0655 55.4025C27.3551 55.1998 26.9493 54.4395 27.1015 53.73C26.6449 54.1863 26.0868 54.3888 25.4271 54.4395C23.7527 54.5916 22.3319 53.4261 22.1797 51.8551C21.3171 52.3619 20.2516 52.2605 19.4397 51.6524C18.6279 51.0442 18.2727 50.0308 18.5264 49.0678C17.3087 49.2198 16.1924 48.3078 16.0909 47.0915C16.0402 46.5847 16.1924 46.0273 16.4461 45.6218C15.3298 45.4699 14.518 44.4055 14.6702 43.2906C14.7209 42.7839 15.0254 42.2771 15.4313 41.9732C14.9239 41.5676 14.6702 40.9595 14.7717 40.3007C14.8732 39.642 15.3298 39.1351 15.9387 38.9325C15.482 38.3751 15.5328 37.5135 16.0402 37.0067L16.0909 37.0067C15.7357 36.804 15.4313 36.5507 15.1776 36.1958C14.2135 34.8784 14.4672 33.054 15.7357 32.0405C14.8732 31.5336 14.3658 30.5708 14.518 29.608C14.6194 28.5945 15.3298 27.7836 16.2939 27.4794C15.7865 26.7701 15.7357 25.8578 16.1416 25.0978C16.5476 24.3376 17.4102 23.8815 18.2727 23.9827C17.9683 23.2227 18.1712 22.3611 18.7294 21.8037C19.2875 21.2462 20.1501 21.0435 20.9112 21.3476C20.9619 20.7395 21.3679 20.182 21.9768 19.9287C22.5856 19.6753 23.2452 19.7766 23.7527 20.182C24.0063 19.5739 24.6152 19.2192 25.2241 19.2699L25.2749 19.4219C25.2749 18.459 25.7822 17.5468 26.5942 16.9894C27.4059 16.432 28.4208 16.3306 29.334 16.6853L29.4863 15.8238C29.7399 15.013 30.4503 14.4049 31.2622 14.2022C32.0739 13.9995 32.9366 14.2529 33.5963 14.8103C33.9006 13.9995 34.6618 13.442 35.575 13.3914C36.4377 13.3407 37.2494 13.7968 37.6554 14.6076C38.1628 13.9488 38.9745 13.6447 39.7864 13.8475C40.5984 14.0501 41.2073 14.709 41.3593 15.4691C41.9682 15.2157 42.6279 15.3171 43.1352 15.7225C43.6426 16.1279 43.8964 16.7867 43.7441 17.3948C44.5053 17.2428 45.2664 17.7496 45.4185 18.5097C45.4693 18.7124 45.4693 18.8645 45.4185 19.0672C45.8753 18.6111 46.4335 18.4084 47.0931 18.307C48.7675 18.2057 50.1373 19.3712 50.2896 20.9423C51.1523 20.4355 52.2686 20.486 53.0803 21.0942C53.8922 21.7023 54.2473 22.7667 53.9937 23.7295C55.2115 23.5774 56.3277 24.4897 56.4293 25.7057C56.48 26.2127 56.3277 26.7701 56.0739 27.1755C56.8859 27.3275 57.5455 27.885 57.7483 28.6957C57.9514 29.5066 57.6976 30.3175 57.0381 30.8242C57.3932 31.0775 57.647 31.4831 57.7483 31.8884C57.8499 32.7498 57.3932 33.5607 56.5813 33.9154C57.0381 34.4728 56.9874 35.3344 56.48 35.8412C57.3425 36.3479 57.9006 37.2602 57.9514 38.223C58.0021 39.2365 57.5455 40.1488 56.7844 40.7569C57.0381 40.9088 57.241 41.0609 57.444 41.3144C58.0021 41.9732 58.1544 42.8346 57.9514 43.6455C57.6976 44.4562 57.0887 45.0643 56.277 45.3178C56.9366 46.3313 56.7844 47.6489 55.9217 48.3584ZM63.4821 13.7968L42.3743 1.63433C38.6194 -0.544776 33.9514 -0.544776 30.1965 1.63433L9.0888 13.7968C5.33404 15.9759 3 19.9793 3 24.3376L3 48.6624C3 53.0207 5.33404 57.0242 9.0888 59.2032L30.1965 71.3656C33.9514 73.5449 38.6194 73.5449 42.3743 71.3656L63.4821 59.2032C67.2368 57.0242 69.5708 53.0207 69.5708 48.6624L69.5708 24.2869C69.5708 19.9793 67.2368 15.9759 63.4821 13.7968ZM20.0486 32.7504C20.6575 33.5611 20.8097 34.6253 20.4546 35.5883C21.6723 35.6897 22.6364 36.6525 22.7379 37.8687C23.8541 37.6153 24.9703 38.2234 25.3764 39.2371C26.2896 38.5783 27.6089 38.7301 28.2685 39.6931L28.3701 39.7945L28.6236 39.5411C29.1818 39.0343 30.0444 38.9836 30.7041 39.4397C30.8056 39.1357 30.9577 38.8822 31.1607 38.6797C31.7188 38.2234 32.4292 38.1727 32.9874 38.5783C33.0889 38.2234 33.3932 37.9701 33.7483 37.9194C33.4947 37.5141 33.3932 37.0578 33.3425 36.6018L33.3425 36.6525C32.8351 36.8046 32.3277 36.5511 32.1755 36.0951C32.1755 36.0444 32.1755 36.0444 32.1247 35.9937C31.6681 36.2471 31.11 36.2978 30.6533 36.0444C30.1967 35.7909 29.8922 35.3348 29.8414 34.8281C29.5371 34.9295 29.0803 34.9802 28.7252 34.8281C27.8627 34.5241 27.4059 33.6118 27.6597 32.7504C26.8985 32.8011 26.1881 32.3956 25.7822 31.7367C25.3764 31.0781 25.4271 30.2672 25.833 29.6084C25.0211 29.4056 24.3616 28.6963 24.2094 27.8854C24.0063 27.0238 24.3109 26.1624 24.9703 25.6556C24.0063 24.794 23.9048 23.3245 24.666 22.311C24.6065 22.311 24.5645 22.2936 24.5297 22.2792C24.505 22.2691 24.4841 22.2603 24.4629 22.2603C24.3616 22.7164 24.0063 23.1217 23.6005 23.3245C23.1945 23.5778 22.6871 23.5778 22.2305 23.4766C22.1797 24.5408 21.2664 25.4022 20.2008 25.4529C20.5053 26.0103 20.556 26.7198 20.3023 27.328C20.0486 27.9361 19.5412 28.3921 18.9324 28.5949C19.7442 29.6084 19.6935 31.0274 18.7801 31.9395C19.2368 31.9395 19.6935 32.2437 20.0486 32.7504ZM35.0169 44.9635C33.8498 45.0647 33.0379 46.1291 33.1902 47.244C32.0739 47.0412 30.9577 47.7507 30.6024 48.7642C29.4861 48.2575 28.2178 48.6121 27.5074 49.6258L27.4566 49.5751C26.4419 48.3082 24.5645 48.1561 23.2959 49.1696C22.9915 47.9533 21.723 47.1426 20.4545 47.3452C20.556 46.7372 20.4037 46.0784 19.9978 45.5715C19.5919 45.0647 19.0338 44.7608 18.3741 44.7101C18.9323 43.798 18.6278 42.5817 17.7145 41.9736C18.1204 41.568 18.3741 40.9599 18.2219 40.3518C18.1712 39.9971 17.9682 39.6424 17.7145 39.389C17.816 39.389 17.9175 39.3383 18.019 39.2876C18.5771 40.3518 19.8456 40.8587 21.0126 40.5038C21.1141 41.3654 21.723 42.0243 22.4841 42.3282C23.2452 42.6324 24.1078 42.4803 24.7673 41.9229C25.0718 42.4803 25.5792 42.9364 26.2388 43.0378C26.8985 43.1391 27.5581 42.9364 28.0148 42.531C28.167 42.4296 28.4206 42.1762 28.4714 41.9736C28.8772 42.4803 29.5369 42.6324 30.1458 42.4803C30.7547 42.3282 31.2113 41.8215 31.3635 41.2134C31.8709 41.4668 32.429 41.5173 32.9364 41.2134C33.444 40.9092 33.6976 40.4025 33.6976 39.845C33.9514 39.9464 34.3065 39.845 34.5095 39.6424C34.7123 39.4904 34.8138 39.2369 34.8646 39.0343C35.3212 39.2876 35.8286 39.4397 36.3362 39.4397C36.2346 39.5918 36.2346 39.7943 36.2346 39.9464C36.2854 40.1492 36.3362 40.3518 36.4882 40.4531C35.8793 40.7573 35.575 41.4161 35.6765 42.075C35.6765 42.3282 35.8793 42.6324 36.0824 42.835C35.372 43.0884 34.9661 43.8992 35.1184 44.6594L35.1691 44.9635L35.0169 44.9635ZM39.3804 25.7568C39.4312 26.3143 39.2791 26.9224 38.873 27.328C38.4672 27.784 37.9598 28.0373 37.3509 28.0373L37.4017 28.3414C37.5539 29.1017 37.1986 29.9124 36.4882 30.1658L36.4377 30.1658C37.0464 30.774 37.0464 31.7367 36.4377 32.2942C36.3362 32.3956 36.2346 32.497 36.0824 32.5477C36.2346 32.7502 36.3362 32.953 36.2854 33.2065C36.7928 33.2065 37.3509 33.3584 37.8075 33.6625C38.0105 33.257 38.4164 33.0544 38.873 33.1558C38.873 32.5983 39.1268 32.0914 39.6342 31.7874C40.1416 31.4833 40.6997 31.534 41.2071 31.7874C41.2071 31.4328 41.4101 31.1286 41.7144 30.8753C42.4756 30.2672 43.4903 30.3177 44.0487 31.0272C44.6068 30.0137 45.8244 29.6591 46.8393 30.1658C47.1944 30.3684 47.499 30.6726 47.7018 31.0272C48.3614 30.4698 49.2241 30.3177 49.9851 30.6219C50.7462 30.9258 51.3551 31.5847 51.4566 32.4463C52.6236 32.0409 53.8922 32.5477 54.4503 33.6625L54.7039 33.5104C53.9937 32.8516 53.9429 31.7367 54.6024 31.0272C54.6219 31.008 54.6339 30.9885 54.644 30.9721C54.6607 30.9453 54.6726 30.9258 54.7039 30.9258C53.7907 30.3177 53.4861 29.1017 54.0443 28.1894C53.3848 28.1894 52.7759 27.8854 52.3699 27.328C51.964 26.821 51.8117 26.1624 51.9132 25.5036C50.6447 25.7061 49.3762 24.8954 49.0718 23.6792C47.8033 24.6927 45.9259 24.4899 44.9111 23.2231C44.2007 24.2366 42.8816 24.5913 41.7652 24.0338C41.5624 25.1994 40.4969 25.9089 39.3804 25.7568ZM28.3193 28.6961C29.0297 27.784 28.9282 26.4664 28.1163 25.6556C29.1312 24.8954 29.4356 23.5778 28.9282 22.5136C30.5518 22.2096 31.6173 20.6892 31.3637 19.0676C32.6323 19.4223 33.9006 18.6622 34.3067 17.4459C34.814 17.8514 35.4737 18.0034 36.0826 17.902C36.6915 17.8007 37.2496 17.4459 37.6047 16.8885C38.2136 17.8007 39.3806 18.1047 40.3446 17.5473C40.4969 18.1554 40.8522 18.7129 41.5116 18.9156C41.8669 19.0169 42.2728 18.9662 42.6279 18.8142L42.6786 19.3716C41.6639 19.5237 40.8014 20.2839 40.5984 21.2973C39.7864 20.9934 38.924 21.0946 38.2643 21.6522C37.6047 22.2096 37.3003 23.071 37.4524 23.8819C36.6915 23.8819 35.9811 24.2366 35.5752 24.8954C35.2199 25.5543 35.1691 26.365 35.5752 27.0238C34.9663 27.1759 34.4587 27.6319 34.3067 28.24C34.1544 28.8482 34.3574 29.507 34.814 29.9124C34.3574 30.1658 34.0529 30.6726 34.0529 31.1793C34.0529 31.7367 34.3067 32.193 34.7633 32.497C34.611 32.7504 34.4587 33.0544 34.5095 33.3586L34.6618 33.7639C34.2559 34.0679 33.9006 34.4734 33.647 34.9295C33.3932 34.7774 33.0889 34.676 32.7843 34.7774C32.8351 34.2707 32.6323 33.7639 32.2262 33.4598C31.8204 33.1558 31.2622 33.0544 30.8056 33.2065C30.9071 32.497 30.3995 31.7874 29.6386 31.5849L29.334 31.4835C29.5878 30.9767 29.6386 30.4193 29.4356 29.8617C29.2325 29.3549 28.8267 28.8989 28.3193 28.6961ZM52.2686 45.8249C52.5221 45.2168 53.0295 44.7608 53.6384 44.558C52.8267 43.5445 52.8774 42.1255 53.7907 41.2134C53.2325 41.0613 52.7759 40.7066 52.4714 40.2506L52.4208 40.2506C51.8119 39.4397 51.6597 38.3755 52.0148 37.4127C50.797 37.3113 49.833 36.3483 49.7315 35.1321C48.666 35.3855 47.5497 34.7774 47.1439 33.7639C46.687 34.1186 46.0782 34.2707 45.52 34.1693C44.9619 34.0679 44.4545 33.7132 44.1502 33.2065L43.8964 33.4598C43.3383 33.9665 42.4758 34.0172 41.8669 33.6118C41.7654 33.916 41.5624 34.1693 41.3593 34.372C40.852 34.8281 40.091 34.8788 39.5329 34.4734C39.4821 34.7267 39.2791 34.9295 39.0253 35.0816C39.2283 35.4869 39.3806 35.9937 39.3806 36.5004L39.7864 36.5004C40.1415 36.6018 40.3446 36.8551 40.3953 37.1592C40.852 36.8551 41.4101 36.8551 41.9175 37.1085C42.3743 37.362 42.7294 37.8181 42.7294 38.3755C43.0845 38.2234 43.4905 38.2234 43.8456 38.3755C44.7083 38.6795 45.1649 39.5918 44.9111 40.4531C45.7231 40.352 46.535 40.7573 46.9408 41.4668C47.3467 42.1762 47.2959 43.0378 46.8393 43.6966C47.6005 43.9499 48.1586 44.6087 48.3109 45.4196C48.463 46.2303 48.2094 47.0412 47.6005 47.5986C48.5645 48.4602 48.666 49.9298 47.9048 50.9432L48.1586 51.0446C48.2601 50.5886 48.5645 50.1832 49.0211 49.9805C49.4271 49.727 49.9345 49.6765 50.3911 49.8284C50.4419 48.7135 51.3551 47.8521 52.4208 47.8521C52.0655 47.1426 52.0655 46.4331 52.2686 45.8249ZM44.2517 44.3047C43.5413 45.2168 43.6428 46.5345 44.4545 47.3454C43.4905 48.0547 43.1352 49.3723 43.592 50.4365C41.9682 50.7407 40.9027 52.2609 41.1565 53.8825C39.9387 53.5785 38.5687 54.2374 38.2136 55.5043C37.7062 55.0988 37.0973 54.8962 36.4377 54.9976C35.8288 55.0988 35.2706 55.4536 34.9156 56.0111C34.3067 55.0988 33.1396 54.7948 32.1755 55.3522C32.0739 54.8455 31.7696 54.4399 31.3637 54.1867C30.9577 53.9332 30.3995 53.8825 29.9429 54.0346L29.9429 54.0853L29.8922 53.5279C30.9069 53.3758 31.7696 52.6158 31.9726 51.6021C32.3785 51.7542 32.7843 51.7542 33.1902 51.7035C34.4587 51.5009 35.2707 50.3353 35.0676 49.0684C35.6765 49.0684 36.3362 48.8149 36.742 48.3588C37.1988 47.8521 37.3509 47.1933 37.2494 46.5851C37.2494 46.3445 37.186 46.1991 37.1091 46.0235C37.0888 45.977 37.0677 45.9286 37.0466 45.8756C37.6554 45.7235 38.1121 45.2675 38.2643 44.6594C38.4164 44.0512 38.2136 43.3924 37.757 42.9871C37.9598 42.8857 38.1121 42.6831 38.2643 42.4803C38.721 41.7708 38.4672 40.8587 37.757 40.4027L37.8583 40.3013C38.1628 39.8957 38.1628 39.3383 37.757 38.9836C38.2136 38.7301 38.6194 38.3755 38.8732 37.9194C39.076 38.122 39.3806 38.2234 39.6849 38.1727C39.6849 38.6797 39.888 39.1357 40.2938 39.4397C40.6999 39.7438 41.258 39.8452 41.7146 39.6931L41.7146 39.7438C41.6639 40.4531 42.1205 41.1627 42.8816 41.3654L43.186 41.4668C42.9324 42.0243 42.8816 42.6324 43.0847 43.1391C43.2875 43.6459 43.6934 44.1019 44.2517 44.3047Z" fill="rgb(240,86,86)" fill-rule="evenodd" />
</svg>
