<svg viewBox="0 0 54.2141 54.214" xmlns="http://www.w3.org/2000/svg" xmlns:xlink="http://www.w3.org/1999/xlink" width="54.214111" height="54.213989" fill="none">
	<rect id="Github" width="54.214039" height="54.214039" x="0.000244" y="0.000000" fill="rgb(255,255,255)" fill-opacity="0" />
	<g id="Group">
		<path id="Vector" d="M27.1048 2.16138C12.9807 2.16138 1.52759 13.612 1.52759 27.7385C1.52759 39.0396 8.85623 48.6266 19.0188 52.0091C20.2967 52.2463 20.7659 51.4542 20.7659 50.7787C20.7659 50.1688 20.7422 48.1539 20.7312 46.0167C13.6156 47.5639 12.1142 42.9989 12.1142 42.9989C10.9507 40.0426 9.27427 39.2565 9.27427 39.2565C6.95323 37.669 9.44919 37.7021 9.44919 37.7021C12.0172 37.8821 13.37 40.3378 13.37 40.3378C15.6512 44.2471 19.3534 43.1171 20.813 42.464C21.0425 40.8109 21.7054 39.6821 22.4368 39.0434C16.7558 38.3975 10.7834 36.204 10.7834 26.4035C10.7834 23.6111 11.7829 21.3294 13.4191 19.5378C13.1531 18.894 12.2776 16.2926 13.6665 12.7695C13.6665 12.7695 15.8138 12.0821 20.7016 15.3913C22.7422 14.8242 24.9307 14.5391 27.1048 14.5294C29.2776 14.5391 31.4673 14.8233 33.5117 15.3904C38.3936 12.0813 40.5384 12.7687 40.5384 12.7687C41.9306 16.2913 41.0551 18.8932 40.7896 19.537C42.4295 21.3286 43.4219 23.6102 43.4219 26.4027C43.4219 36.2264 37.4385 38.3891 31.743 39.0227C32.6608 39.8164 33.4783 41.3734 33.4783 43.7592C33.4783 47.1815 33.4486 49.9358 33.4486 50.7782C33.4486 51.4589 33.9095 52.2564 35.2055 52.0053C45.3622 48.6194 52.6823 39.0354 52.6823 27.7385C52.6819 13.6128 41.2301 2.16138 27.1048 2.16138Z" fill="rgb(213,255,63)" fill-rule="evenodd" />
		<path id="Vector" d="M11.213 38.8841C11.1567 39.0112 10.9568 39.0493 10.7747 38.9625C10.5883 38.8795 10.4845 38.7062 10.5447 38.5788C10.5997 38.4475 10.8001 38.4115 10.9852 38.4991C11.1715 38.5826 11.2774 38.7575 11.2126 38.8846L11.213 38.8841ZM12.249 40.04C12.1275 40.1531 11.889 40.1006 11.7272 39.9214C11.5595 39.7435 11.5282 39.5051 11.6523 39.3903C11.7785 39.2776 12.0097 39.331 12.1775 39.5089C12.3443 39.6893 12.3774 39.9256 12.2495 40.0404L12.249 40.04ZM13.2579 41.5127C13.1012 41.6219 12.8445 41.5199 12.6861 41.2924C12.5294 41.0646 12.5294 40.7914 12.6904 40.6825C12.8484 40.5732 13.1012 40.6719 13.2622 40.8973C13.418 41.1281 13.418 41.4017 13.2579 41.5127ZM14.6391 42.9362C14.4993 43.0908 14.2003 43.0493 13.9818 42.8388C13.7586 42.6325 13.6963 42.339 13.8365 42.1848C13.9788 42.0298 14.2791 42.073 14.4989 42.2823C14.7221 42.4881 14.7895 42.782 14.64 42.9358L14.6391 42.9362ZM16.5451 43.7626C16.4828 43.9629 16.1956 44.054 15.9055 43.9684C15.6162 43.8807 15.4269 43.6465 15.4862 43.444C15.5455 43.242 15.8348 43.1476 16.1266 43.2386C16.4159 43.3259 16.6052 43.5588 16.5451 43.7626ZM18.6387 43.9155C18.6459 44.1264 18.4002 44.3009 18.0965 44.3051C17.7903 44.3123 17.5425 44.1412 17.5396 43.9337C17.5396 43.7206 17.7801 43.5482 18.0859 43.5423C18.3896 43.5368 18.6391 43.7062 18.6391 43.915L18.6387 43.9155ZM20.5861 43.5842C20.6226 43.7897 20.4112 44.001 20.1092 44.0573C19.8127 44.1124 19.5374 43.9845 19.4993 43.7808C19.4629 43.5698 19.678 43.3585 19.9745 43.3039C20.2769 43.2518 20.548 43.3754 20.5861 43.5842Z" fill="rgb(213,255,63)" fill-rule="nonzero" />
	</g>
</svg>
